<?xml version="1.0" encoding="UTF-8"?><svg id="Calque_2" xmlns="http://www.w3.org/2000/svg" viewBox="0 0 801.58 296.41">  <defs>
    <style>
      .cls-1 {
        stroke-width: 0px;
      }
    </style>
  </defs>
  <g id="Calque_1-2" data-name="Calque 1">
    <path class="cls-1" d="m178.18,132.99c16.16,0,32.33-.02,48.49.01,5.76.01,7.68,2.14,6.46,7.69-3.14,14.3-6.53,28.55-9.75,42.83-.87,3.88-3.22,5.64-7.09,5.59-.17,0-.33,0-.5,0-4.27.24-9.55-.95-12.52,1.14-2.75,1.94-3.07,7.37-4.41,11.29-7.57,22.19-16.94,43.39-32.63,61.27-16.14,18.41-36.64,28.36-60.67,31.35-14.94,1.86-29.99,2.64-44.67-1.41-26.77-7.39-43.26-25.84-52.67-51.12C-.39,218.51-1.28,194.44,1.22,170.17c3.43-33.39,11.37-65.56,26.85-95.56,12.67-24.56,29.33-45.69,53.76-59.61C105.71,1.39,131.44-2.41,158.1,3.52c29.78,6.63,46.04,27.31,52.74,55.83,2.72,11.57,3.23,23.69,4.28,35.61.54,6.04-1.21,7.5-7.13,7.51-18.66.04-37.33-.08-55.99.09-4.52.04-6.05-1.7-6.42-6.09-.5-5.93-1.18-12-2.96-17.64-3.67-11.57-12.82-15.92-24.42-12.27-7.42,2.34-13.15,7.17-17.72,13.27-14.44,19.27-22.67,41.36-28.23,64.48-4.86,20.23-6.69,40.78-3.15,61.46,4.39,25.61,25.61,33.77,46.05,17.69,9.73-7.66,15.5-18.09,19.07-29.82,1.01-3.31,0-4.62-3.49-4.48-4.49.17-9,.17-13.5,0-4.82-.18-6.52-2.47-5.47-7.15,3.14-13.96,6.44-27.89,9.44-41.88,1.09-5.1,3.7-7.26,8.98-7.2,16,.19,32,.07,47.99.07Z"/>
    <path class="cls-1" d="m579.89,149.18c0,45.17,0,90.34,0,135.52,0,5.75-1.34,7.19-6.97,7.2-18.83.04-37.67.05-56.5,0-5.76-.01-7.38-1.73-7.17-7.58.29-7.99.63-15.99,1.1-23.97.19-3.18-.83-4.39-4.19-4.37-19,.13-38,.12-57,0-3.17-.02-4.81,1.19-5.94,4.07-3.27,8.36-7.04,16.54-10.09,24.99-1.91,5.29-5.16,7.01-10.55,6.95-18.17-.21-36.34-.06-54.5-.09-8.04,0-9.84-2.86-6.5-10.26,16.56-36.69,33.16-73.37,49.72-110.07,24.01-53.23,48.05-106.44,71.93-159.73,2.04-4.55,4.63-6.56,9.8-6.51,26.17.22,52.34.09,78.51.11,7.49,0,8.66,1.2,8.66,8.72,0,45.01,0,90.01,0,135.02-.1,0-.19,0-.29,0Zm-109.76,45.69c12.65,0,23.77,0,34.89,0,7.4,0,7.69-.32,8.04-7.89,1.27-27.78,2.65-55.56,3.82-83.34.32-7.69.05-15.4.05-23.1l-.69-.32c-15.13,37.62-30.26,75.24-46.1,114.64Z"/>
    <path class="cls-1" d="m690.97,5.43c15.49-.18,33.28.05,50.73,4.59,35.63,9.28,56.15,33.06,59.23,70.21,2.72,32.84-2.95,64.11-20.65,92.45-21.6,34.58-53.36,53.9-93.27,59.25-15.58,2.09-31.58,1.05-47.39,1.43-1.5.04-3.03-.17-4.49.09-1,.18-1.9.95-2.85,1.46.61.87,1.03,2.08,1.86,2.55,5.38,3,10.82,5.88,16.29,8.7,15.36,7.94,12.25,5.35,9.54,19.76-1.26,6.7-3.09,13.29-4.4,19.98-.81,4.12-2.94,6.04-7.15,6.03-18.17-.06-36.33.03-54.5-.06-5.71-.03-7.26-2.28-5.95-8,20.7-90.51,41.45-181.02,62.05-271.55,1.14-5.02,3.64-7,8.6-6.93,10,.14,20,.04,32.35.04Zm-9.1,164.76c3.3-.16,5.95-.05,8.52-.44,13.15-2.02,22.25-9.95,29.14-20.72,7.4-11.56,11.15-24.43,12.77-37.97,1.28-10.64,1.91-21.26-2.12-31.53-3.28-8.36-9.1-12.38-17.96-12.41-12.66-.05-25.31-.05-37.97.04-1.33,0-2.65.75-3.98,1.15.94,1.15,1.66,2.72,2.87,3.39,7.71,4.26,15.47,8.45,23.35,12.4,3.29,1.65,4.08,3.65,3.24,7.19-3.49,14.72-6.73,29.5-10.06,44.27-2.55,11.31-5.1,22.62-7.8,34.65Z"/>
    <path class="cls-1" d="m238.11,205.17c8.83,0,17.66-.03,26.5.01,5.72.03,7.24,1.83,7.38,7.49.11,4.3.27,8.7,1.26,12.85,1.73,7.26,6.48,10.86,13.47,11.13,7.41.29,13.18-3.23,15.6-10.05,3.83-10.74,2.8-21.42-3.76-30.52-6.87-9.54-14.77-18.42-22.85-27-11.1-11.8-21.89-23.73-29.81-38.01-18.34-33.08-14.07-74.47,10.94-102.4,10.12-11.3,22.84-18.84,37.21-23.37,19.63-6.19,39.61-6.95,59.69-2.3,29.49,6.83,46.64,25.68,52.25,55.03,1.61,8.44,1.59,17.21,2.19,25.83.33,4.84-2.29,7.02-6.97,7.02-17.33,0-34.66.06-51.99-.03-5.97-.03-7.87-2.11-8.43-8.06-.31-3.31-.56-6.67-1.36-9.87-2.37-9.39-7.74-13.22-17.43-12.78-8.88.4-15.5,6.22-16.84,14.88-1.27,8.23-.23,16.42,4.74,22.94,8.25,10.81,17.01,21.33,26.46,31.09,13.32,13.76,26.32,27.8,32.23,46.32,10.73,33.59,8.01,65.53-15.45,93.54-10.47,12.5-24.46,19.9-40.16,23.87-19.26,4.88-38.63,4.91-57.82-.23-28.44-7.63-46.18-27.93-49.91-57.11-.99-7.73-1.02-15.6-1.14-23.42-.08-5.14,1.82-6.77,7.01-6.81,9-.06,18-.02,27-.02Z"/>
    <path class="cls-1" d="m765.02,274.97c.06,9.36-7.26,16.82-16.6,16.94-9.45.12-17.14-7.58-17.05-17.04.09-9.32,7.58-16.71,16.89-16.67,9.38.05,16.7,7.38,16.76,16.77Zm-16.66,13.5c7.7-.04,12.69-5.37,12.63-13.5-.05-8.19-5.06-13.55-12.68-13.58-7.77-.03-13.11,5.71-12.93,13.88.18,8.2,5.14,13.24,12.97,13.2Z"/>
    <path class="cls-1" d="m754.84,276.9c.21-3.69,1.46-7.03.3-8.59-3.55-4.79-8.95-2.33-13.76-2.71v18.59c1.81-.16,3.22-.28,4.57-.39.23-2.3.42-4.2.61-6.1.53-.19,1.06-.38,1.6-.57,1.15,2.13,2.31,4.26,3.62,6.68h4.8c-.73-2.92-1.36-5.41-1.73-6.91Z"/>
    <path class="cls-1" d="m754.84,276.9c.38,1.5,1,3.99,1.73,6.91h-4.8c-1.31-2.42-2.47-4.55-3.62-6.68-.53.19-1.06.38-1.6.57-.19,1.9-.38,3.8-.61,6.1-1.35.12-2.76.24-4.57.39v-18.59c4.81.37,10.21-2.08,13.76,2.71,1.16,1.56-.09,4.9-.3,8.59Z"/>
  </g></svg>