<?xml version="1.0" encoding="UTF-8"?><svg id="Calque_2" xmlns="http://www.w3.org/2000/svg" viewBox="0 0 72 72"><defs><style>.cls-1{fill-rule:evenodd;}</style></defs><g id="Calque_1-2"><path class="cls-1" d="m18,26.16v20.39c0,1.11.81,2.01,1.93,2.01h31.81c1.12,0,1.93-.91,1.93-2.01v-20.39c0-1.22-.73-2.16-1.93-2.16h-31.81c-1.25,0-1.93.97-1.93,2.16m2.93,1.78c0-.49.3-.77.77-.77.29,0,11.85,7.33,12.55,7.76l1.81,1.13c.57-.38,1.15-.71,1.74-1.11,1.21-.78,12.01-7.77,12.31-7.77.48,0,.77.28.77.77,0,.52-1,1.04-1.65,1.44-4.1,2.5-8.2,5.22-12.26,7.82-.24.16-.7.5-1.04.45-.38-.06-12.15-7.62-14.29-8.88-.32-.19-.72-.36-.72-.83m15.07,44.06h0c19.88,0,36-16.12,36-36h0C72,16.12,55.88,0,36,0h0C16.12,0,0,16.12,0,36h0c0,19.88,16.12,36,36,36Z"/></g></svg>